<mxfile host="Electron" agent="Mozilla/5.0 (Windows NT 10.0; Win64; x64) AppleWebKit/537.36 (KHTML, like Gecko) draw.io/26.0.4 Chrome/128.0.6613.186 Electron/32.2.5 Safari/537.36" version="26.0.4" pages="2">
  <diagram name="GameLoop" id="oeJDRHkP7JcGlHTwyNBX">
    <mxGraphModel dx="1050" dy="629" grid="1" gridSize="10" guides="1" tooltips="1" connect="1" arrows="1" fold="1" page="1" pageScale="1" pageWidth="827" pageHeight="1169" math="0" shadow="0">
      <root>
        <mxCell id="0" />
        <mxCell id="1" parent="0" />
        <mxCell id="z_V2Mc0wrhUSTgX5yjXf-4" value="GameLoop.java" style="swimlane;whiteSpace=wrap;html=1;swimlaneLine=0;" parent="1" vertex="1">
          <mxGeometry x="40" y="40" width="1620" height="1210" as="geometry" />
        </mxCell>
        <mxCell id="z_V2Mc0wrhUSTgX5yjXf-44" style="edgeStyle=orthogonalEdgeStyle;rounded=0;orthogonalLoop=1;jettySize=auto;html=1;exitX=0.5;exitY=1;exitDx=0;exitDy=0;entryX=0.5;entryY=0;entryDx=0;entryDy=0;" parent="z_V2Mc0wrhUSTgX5yjXf-4" source="z_V2Mc0wrhUSTgX5yjXf-3" target="z_V2Mc0wrhUSTgX5yjXf-6" edge="1">
          <mxGeometry relative="1" as="geometry" />
        </mxCell>
        <mxCell id="z_V2Mc0wrhUSTgX5yjXf-3" value="START&lt;br&gt;AnimationTimer.handle()" style="ellipse;whiteSpace=wrap;html=1;" parent="z_V2Mc0wrhUSTgX5yjXf-4" vertex="1">
          <mxGeometry x="240" y="40" width="200" height="60" as="geometry" />
        </mxCell>
        <mxCell id="z_V2Mc0wrhUSTgX5yjXf-8" style="edgeStyle=orthogonalEdgeStyle;rounded=0;orthogonalLoop=1;jettySize=auto;html=1;exitX=0;exitY=0.5;exitDx=0;exitDy=0;entryX=0.5;entryY=0;entryDx=0;entryDy=0;" parent="z_V2Mc0wrhUSTgX5yjXf-4" source="z_V2Mc0wrhUSTgX5yjXf-6" target="z_V2Mc0wrhUSTgX5yjXf-7" edge="1">
          <mxGeometry relative="1" as="geometry" />
        </mxCell>
        <mxCell id="z_V2Mc0wrhUSTgX5yjXf-14" style="edgeStyle=orthogonalEdgeStyle;rounded=0;orthogonalLoop=1;jettySize=auto;html=1;exitX=1;exitY=0.5;exitDx=0;exitDy=0;entryX=0.5;entryY=0;entryDx=0;entryDy=0;" parent="z_V2Mc0wrhUSTgX5yjXf-4" source="z_V2Mc0wrhUSTgX5yjXf-6" target="z_V2Mc0wrhUSTgX5yjXf-11" edge="1">
          <mxGeometry relative="1" as="geometry" />
        </mxCell>
        <mxCell id="z_V2Mc0wrhUSTgX5yjXf-6" value="GameState.getGameOverState()" style="rhombus;whiteSpace=wrap;html=1;" parent="z_V2Mc0wrhUSTgX5yjXf-4" vertex="1">
          <mxGeometry x="200" y="150" width="280" height="60" as="geometry" />
        </mxCell>
        <mxCell id="z_V2Mc0wrhUSTgX5yjXf-7" value="renderer.gameOver()&lt;br&gt;stop &lt;b&gt;loop&lt;/b&gt;" style="rounded=0;whiteSpace=wrap;html=1;" parent="z_V2Mc0wrhUSTgX5yjXf-4" vertex="1">
          <mxGeometry x="120" y="240" width="120" height="40" as="geometry" />
        </mxCell>
        <mxCell id="z_V2Mc0wrhUSTgX5yjXf-9" value="yes" style="text;html=1;align=center;verticalAlign=middle;whiteSpace=wrap;rounded=0;" parent="z_V2Mc0wrhUSTgX5yjXf-4" vertex="1">
          <mxGeometry x="210" y="190" width="60" height="30" as="geometry" />
        </mxCell>
        <mxCell id="z_V2Mc0wrhUSTgX5yjXf-10" value="no" style="text;html=1;align=center;verticalAlign=middle;whiteSpace=wrap;rounded=0;" parent="z_V2Mc0wrhUSTgX5yjXf-4" vertex="1">
          <mxGeometry x="410" y="190" width="60" height="30" as="geometry" />
        </mxCell>
        <mxCell id="z_V2Mc0wrhUSTgX5yjXf-43" style="edgeStyle=orthogonalEdgeStyle;rounded=0;orthogonalLoop=1;jettySize=auto;html=1;exitX=1;exitY=0.5;exitDx=0;exitDy=0;entryX=0.5;entryY=0;entryDx=0;entryDy=0;" parent="z_V2Mc0wrhUSTgX5yjXf-4" source="z_V2Mc0wrhUSTgX5yjXf-11" target="z_V2Mc0wrhUSTgX5yjXf-19" edge="1">
          <mxGeometry relative="1" as="geometry" />
        </mxCell>
        <mxCell id="z_V2Mc0wrhUSTgX5yjXf-46" style="edgeStyle=orthogonalEdgeStyle;rounded=0;orthogonalLoop=1;jettySize=auto;html=1;exitX=0;exitY=0.5;exitDx=0;exitDy=0;entryX=0.5;entryY=0;entryDx=0;entryDy=0;" parent="z_V2Mc0wrhUSTgX5yjXf-4" source="z_V2Mc0wrhUSTgX5yjXf-11" target="z_V2Mc0wrhUSTgX5yjXf-18" edge="1">
          <mxGeometry relative="1" as="geometry" />
        </mxCell>
        <mxCell id="z_V2Mc0wrhUSTgX5yjXf-11" value="GameState.getGameOverState()" style="rhombus;whiteSpace=wrap;html=1;" parent="z_V2Mc0wrhUSTgX5yjXf-4" vertex="1">
          <mxGeometry x="360" y="240" width="280" height="60" as="geometry" />
        </mxCell>
        <mxCell id="z_V2Mc0wrhUSTgX5yjXf-16" value="yes" style="text;html=1;align=center;verticalAlign=middle;whiteSpace=wrap;rounded=0;" parent="z_V2Mc0wrhUSTgX5yjXf-4" vertex="1">
          <mxGeometry x="370" y="280" width="60" height="30" as="geometry" />
        </mxCell>
        <mxCell id="z_V2Mc0wrhUSTgX5yjXf-17" value="no" style="text;html=1;align=center;verticalAlign=middle;whiteSpace=wrap;rounded=0;" parent="z_V2Mc0wrhUSTgX5yjXf-4" vertex="1">
          <mxGeometry x="570" y="280" width="60" height="30" as="geometry" />
        </mxCell>
        <mxCell id="z_V2Mc0wrhUSTgX5yjXf-18" value="renderer.gameOver()&lt;br&gt;stop &lt;b&gt;loop&lt;/b&gt;" style="rounded=0;whiteSpace=wrap;html=1;" parent="z_V2Mc0wrhUSTgX5yjXf-4" vertex="1">
          <mxGeometry x="280" y="320" width="120" height="40" as="geometry" />
        </mxCell>
        <mxCell id="z_V2Mc0wrhUSTgX5yjXf-47" style="edgeStyle=orthogonalEdgeStyle;rounded=0;orthogonalLoop=1;jettySize=auto;html=1;exitX=0.5;exitY=1;exitDx=0;exitDy=0;entryX=0.5;entryY=0;entryDx=0;entryDy=0;" parent="z_V2Mc0wrhUSTgX5yjXf-4" source="z_V2Mc0wrhUSTgX5yjXf-19" target="z_V2Mc0wrhUSTgX5yjXf-20" edge="1">
          <mxGeometry relative="1" as="geometry" />
        </mxCell>
        <mxCell id="z_V2Mc0wrhUSTgX5yjXf-19" value="&lt;b&gt;update()&lt;/b&gt;" style="rounded=0;whiteSpace=wrap;html=1;" parent="z_V2Mc0wrhUSTgX5yjXf-4" vertex="1">
          <mxGeometry x="600" y="320" width="120" height="40" as="geometry" />
        </mxCell>
        <mxCell id="z_V2Mc0wrhUSTgX5yjXf-48" style="edgeStyle=orthogonalEdgeStyle;rounded=0;orthogonalLoop=1;jettySize=auto;html=1;exitX=0.5;exitY=1;exitDx=0;exitDy=0;entryX=0.5;entryY=0;entryDx=0;entryDy=0;" parent="z_V2Mc0wrhUSTgX5yjXf-4" source="z_V2Mc0wrhUSTgX5yjXf-20" target="z_V2Mc0wrhUSTgX5yjXf-21" edge="1">
          <mxGeometry relative="1" as="geometry" />
        </mxCell>
        <mxCell id="z_V2Mc0wrhUSTgX5yjXf-20" value="renderer.clear(gc)" style="rounded=0;whiteSpace=wrap;html=1;" parent="z_V2Mc0wrhUSTgX5yjXf-4" vertex="1">
          <mxGeometry x="600" y="400" width="120" height="40" as="geometry" />
        </mxCell>
        <mxCell id="z_V2Mc0wrhUSTgX5yjXf-49" style="edgeStyle=orthogonalEdgeStyle;rounded=0;orthogonalLoop=1;jettySize=auto;html=1;exitX=0.5;exitY=1;exitDx=0;exitDy=0;entryX=0.5;entryY=0;entryDx=0;entryDy=0;" parent="z_V2Mc0wrhUSTgX5yjXf-4" source="z_V2Mc0wrhUSTgX5yjXf-21" target="z_V2Mc0wrhUSTgX5yjXf-37" edge="1">
          <mxGeometry relative="1" as="geometry" />
        </mxCell>
        <mxCell id="z_V2Mc0wrhUSTgX5yjXf-21" value="renderer.renderParallax()&amp;nbsp;" style="rounded=0;whiteSpace=wrap;html=1;" parent="z_V2Mc0wrhUSTgX5yjXf-4" vertex="1">
          <mxGeometry x="590" y="480" width="140" height="40" as="geometry" />
        </mxCell>
        <mxCell id="z_V2Mc0wrhUSTgX5yjXf-50" style="edgeStyle=orthogonalEdgeStyle;rounded=0;orthogonalLoop=1;jettySize=auto;html=1;exitX=0.5;exitY=1;exitDx=0;exitDy=0;entryX=0.5;entryY=0;entryDx=0;entryDy=0;" parent="z_V2Mc0wrhUSTgX5yjXf-4" source="z_V2Mc0wrhUSTgX5yjXf-37" target="z_V2Mc0wrhUSTgX5yjXf-38" edge="1">
          <mxGeometry relative="1" as="geometry" />
        </mxCell>
        <mxCell id="z_V2Mc0wrhUSTgX5yjXf-37" value="camera.update(entitiesPlayer coords)" style="rounded=0;whiteSpace=wrap;html=1;" parent="z_V2Mc0wrhUSTgX5yjXf-4" vertex="1">
          <mxGeometry x="550" y="560" width="220" height="40" as="geometry" />
        </mxCell>
        <mxCell id="z_V2Mc0wrhUSTgX5yjXf-51" style="edgeStyle=orthogonalEdgeStyle;rounded=0;orthogonalLoop=1;jettySize=auto;html=1;exitX=0.5;exitY=1;exitDx=0;exitDy=0;entryX=0.5;entryY=0;entryDx=0;entryDy=0;" parent="z_V2Mc0wrhUSTgX5yjXf-4" source="z_V2Mc0wrhUSTgX5yjXf-38" target="z_V2Mc0wrhUSTgX5yjXf-39" edge="1">
          <mxGeometry relative="1" as="geometry" />
        </mxCell>
        <mxCell id="z_V2Mc0wrhUSTgX5yjXf-38" value="level.renderGround()" style="rounded=0;whiteSpace=wrap;html=1;" parent="z_V2Mc0wrhUSTgX5yjXf-4" vertex="1">
          <mxGeometry x="600" y="640" width="120" height="40" as="geometry" />
        </mxCell>
        <mxCell id="z_V2Mc0wrhUSTgX5yjXf-52" style="edgeStyle=orthogonalEdgeStyle;rounded=0;orthogonalLoop=1;jettySize=auto;html=1;exitX=0.5;exitY=1;exitDx=0;exitDy=0;entryX=0.5;entryY=0;entryDx=0;entryDy=0;" parent="z_V2Mc0wrhUSTgX5yjXf-4" source="z_V2Mc0wrhUSTgX5yjXf-39" target="z_V2Mc0wrhUSTgX5yjXf-40" edge="1">
          <mxGeometry relative="1" as="geometry" />
        </mxCell>
        <mxCell id="z_V2Mc0wrhUSTgX5yjXf-39" value="level.renderObject()" style="rounded=0;whiteSpace=wrap;html=1;" parent="z_V2Mc0wrhUSTgX5yjXf-4" vertex="1">
          <mxGeometry x="600" y="720" width="120" height="40" as="geometry" />
        </mxCell>
        <mxCell id="z_V2Mc0wrhUSTgX5yjXf-53" style="edgeStyle=orthogonalEdgeStyle;rounded=0;orthogonalLoop=1;jettySize=auto;html=1;exitX=0.5;exitY=1;exitDx=0;exitDy=0;entryX=0.5;entryY=0;entryDx=0;entryDy=0;" parent="z_V2Mc0wrhUSTgX5yjXf-4" source="z_V2Mc0wrhUSTgX5yjXf-40" target="z_V2Mc0wrhUSTgX5yjXf-41" edge="1">
          <mxGeometry relative="1" as="geometry" />
        </mxCell>
        <mxCell id="z_V2Mc0wrhUSTgX5yjXf-40" value="entitiesPlayer.render()" style="rounded=0;whiteSpace=wrap;html=1;" parent="z_V2Mc0wrhUSTgX5yjXf-4" vertex="1">
          <mxGeometry x="590" y="800" width="140" height="40" as="geometry" />
        </mxCell>
        <mxCell id="z_V2Mc0wrhUSTgX5yjXf-54" style="edgeStyle=orthogonalEdgeStyle;rounded=0;orthogonalLoop=1;jettySize=auto;html=1;exitX=0.5;exitY=1;exitDx=0;exitDy=0;entryX=0.5;entryY=0;entryDx=0;entryDy=0;" parent="z_V2Mc0wrhUSTgX5yjXf-4" source="z_V2Mc0wrhUSTgX5yjXf-41" target="z_V2Mc0wrhUSTgX5yjXf-42" edge="1">
          <mxGeometry relative="1" as="geometry" />
        </mxCell>
        <mxCell id="z_V2Mc0wrhUSTgX5yjXf-41" value="&lt;b&gt;renderUI()&lt;/b&gt;" style="rounded=0;whiteSpace=wrap;html=1;" parent="z_V2Mc0wrhUSTgX5yjXf-4" vertex="1">
          <mxGeometry x="600" y="880" width="120" height="40" as="geometry" />
        </mxCell>
        <mxCell id="z_V2Mc0wrhUSTgX5yjXf-42" value="renderer.gameOver()&lt;br&gt;stop &lt;b&gt;loop&lt;/b&gt;" style="rounded=0;whiteSpace=wrap;html=1;" parent="z_V2Mc0wrhUSTgX5yjXf-4" vertex="1">
          <mxGeometry x="600" y="960" width="120" height="40" as="geometry" />
        </mxCell>
        <mxCell id="z_V2Mc0wrhUSTgX5yjXf-130" style="edgeStyle=orthogonalEdgeStyle;rounded=0;orthogonalLoop=1;jettySize=auto;html=1;exitX=0;exitY=0.5;exitDx=0;exitDy=0;entryX=1;entryY=0.5;entryDx=0;entryDy=0;" parent="z_V2Mc0wrhUSTgX5yjXf-4" source="z_V2Mc0wrhUSTgX5yjXf-62" target="z_V2Mc0wrhUSTgX5yjXf-19" edge="1">
          <mxGeometry relative="1" as="geometry" />
        </mxCell>
        <mxCell id="z_V2Mc0wrhUSTgX5yjXf-62" value="update()" style="swimlane;whiteSpace=wrap;html=1;" parent="z_V2Mc0wrhUSTgX5yjXf-4" vertex="1">
          <mxGeometry x="1040" y="30" width="560" height="1050" as="geometry" />
        </mxCell>
        <mxCell id="z_V2Mc0wrhUSTgX5yjXf-125" style="edgeStyle=orthogonalEdgeStyle;rounded=0;orthogonalLoop=1;jettySize=auto;html=1;entryX=0.5;entryY=0;entryDx=0;entryDy=0;" parent="z_V2Mc0wrhUSTgX5yjXf-62" source="z_V2Mc0wrhUSTgX5yjXf-64" target="z_V2Mc0wrhUSTgX5yjXf-94" edge="1">
          <mxGeometry relative="1" as="geometry" />
        </mxCell>
        <mxCell id="z_V2Mc0wrhUSTgX5yjXf-64" value="START" style="ellipse;whiteSpace=wrap;html=1;" parent="z_V2Mc0wrhUSTgX5yjXf-62" vertex="1">
          <mxGeometry x="181" y="50" width="200" height="40" as="geometry" />
        </mxCell>
        <mxCell id="z_V2Mc0wrhUSTgX5yjXf-92" style="edgeStyle=orthogonalEdgeStyle;rounded=0;orthogonalLoop=1;jettySize=auto;html=1;exitX=1;exitY=0.5;exitDx=0;exitDy=0;entryX=0.5;entryY=0;entryDx=0;entryDy=0;" parent="z_V2Mc0wrhUSTgX5yjXf-62" source="z_V2Mc0wrhUSTgX5yjXf-94" edge="1">
          <mxGeometry relative="1" as="geometry">
            <mxPoint x="441" y="210" as="targetPoint" />
          </mxGeometry>
        </mxCell>
        <mxCell id="z_V2Mc0wrhUSTgX5yjXf-93" style="edgeStyle=orthogonalEdgeStyle;rounded=0;orthogonalLoop=1;jettySize=auto;html=1;exitX=0;exitY=0.5;exitDx=0;exitDy=0;entryX=0.5;entryY=0;entryDx=0;entryDy=0;" parent="z_V2Mc0wrhUSTgX5yjXf-62" source="z_V2Mc0wrhUSTgX5yjXf-94" edge="1">
          <mxGeometry relative="1" as="geometry">
            <mxPoint x="121" y="210" as="targetPoint" />
          </mxGeometry>
        </mxCell>
        <mxCell id="z_V2Mc0wrhUSTgX5yjXf-99" style="edgeStyle=orthogonalEdgeStyle;rounded=0;orthogonalLoop=1;jettySize=auto;html=1;exitX=0.5;exitY=1;exitDx=0;exitDy=0;" parent="z_V2Mc0wrhUSTgX5yjXf-62" source="z_V2Mc0wrhUSTgX5yjXf-94" edge="1">
          <mxGeometry relative="1" as="geometry">
            <mxPoint x="281.2631578947371" y="270" as="targetPoint" />
          </mxGeometry>
        </mxCell>
        <mxCell id="z_V2Mc0wrhUSTgX5yjXf-94" value="Keys: LEFT / RIGHT" style="rhombus;whiteSpace=wrap;html=1;" parent="z_V2Mc0wrhUSTgX5yjXf-62" vertex="1">
          <mxGeometry x="141" y="130" width="280" height="60" as="geometry" />
        </mxCell>
        <mxCell id="z_V2Mc0wrhUSTgX5yjXf-95" value="LEFT&amp;nbsp;" style="text;html=1;align=center;verticalAlign=middle;whiteSpace=wrap;rounded=0;" parent="z_V2Mc0wrhUSTgX5yjXf-62" vertex="1">
          <mxGeometry x="151" y="170" width="60" height="30" as="geometry" />
        </mxCell>
        <mxCell id="z_V2Mc0wrhUSTgX5yjXf-96" value="RIGHT&amp;nbsp;" style="text;html=1;align=center;verticalAlign=middle;whiteSpace=wrap;rounded=0;" parent="z_V2Mc0wrhUSTgX5yjXf-62" vertex="1">
          <mxGeometry x="351" y="170" width="60" height="30" as="geometry" />
        </mxCell>
        <mxCell id="z_V2Mc0wrhUSTgX5yjXf-108" style="edgeStyle=orthogonalEdgeStyle;rounded=0;orthogonalLoop=1;jettySize=auto;html=1;entryX=0.5;entryY=0;entryDx=0;entryDy=0;" parent="z_V2Mc0wrhUSTgX5yjXf-62" source="z_V2Mc0wrhUSTgX5yjXf-97" target="z_V2Mc0wrhUSTgX5yjXf-77" edge="1">
          <mxGeometry relative="1" as="geometry">
            <Array as="points">
              <mxPoint x="121" y="350" />
              <mxPoint x="281" y="350" />
            </Array>
          </mxGeometry>
        </mxCell>
        <mxCell id="z_V2Mc0wrhUSTgX5yjXf-97" value="moveLeft()" style="rounded=0;whiteSpace=wrap;html=1;" parent="z_V2Mc0wrhUSTgX5yjXf-62" vertex="1">
          <mxGeometry x="41" y="210" width="160" height="40" as="geometry" />
        </mxCell>
        <mxCell id="z_V2Mc0wrhUSTgX5yjXf-107" style="edgeStyle=orthogonalEdgeStyle;rounded=0;orthogonalLoop=1;jettySize=auto;html=1;entryX=0.5;entryY=0;entryDx=0;entryDy=0;" parent="z_V2Mc0wrhUSTgX5yjXf-62" source="z_V2Mc0wrhUSTgX5yjXf-98" target="z_V2Mc0wrhUSTgX5yjXf-77" edge="1">
          <mxGeometry relative="1" as="geometry">
            <Array as="points">
              <mxPoint x="441" y="350" />
              <mxPoint x="281" y="350" />
            </Array>
          </mxGeometry>
        </mxCell>
        <mxCell id="z_V2Mc0wrhUSTgX5yjXf-98" value="moveRight()" style="rounded=0;whiteSpace=wrap;html=1;" parent="z_V2Mc0wrhUSTgX5yjXf-62" vertex="1">
          <mxGeometry x="361" y="210" width="160" height="40" as="geometry" />
        </mxCell>
        <mxCell id="z_V2Mc0wrhUSTgX5yjXf-100" value="default" style="text;html=1;align=center;verticalAlign=middle;whiteSpace=wrap;rounded=0;" parent="z_V2Mc0wrhUSTgX5yjXf-62" vertex="1">
          <mxGeometry x="271" y="190" width="60" height="30" as="geometry" />
        </mxCell>
        <mxCell id="z_V2Mc0wrhUSTgX5yjXf-104" style="edgeStyle=orthogonalEdgeStyle;rounded=0;orthogonalLoop=1;jettySize=auto;html=1;exitX=0.5;exitY=1;exitDx=0;exitDy=0;entryX=0.5;entryY=0;entryDx=0;entryDy=0;" parent="z_V2Mc0wrhUSTgX5yjXf-62" source="z_V2Mc0wrhUSTgX5yjXf-101" target="z_V2Mc0wrhUSTgX5yjXf-77" edge="1">
          <mxGeometry relative="1" as="geometry" />
        </mxCell>
        <mxCell id="z_V2Mc0wrhUSTgX5yjXf-101" value="entitiesPlayer.stopMoving()" style="rounded=0;whiteSpace=wrap;html=1;" parent="z_V2Mc0wrhUSTgX5yjXf-62" vertex="1">
          <mxGeometry x="201" y="270" width="160" height="40" as="geometry" />
        </mxCell>
        <mxCell id="z_V2Mc0wrhUSTgX5yjXf-75" style="edgeStyle=orthogonalEdgeStyle;rounded=0;orthogonalLoop=1;jettySize=auto;html=1;exitX=1;exitY=0.5;exitDx=0;exitDy=0;entryX=0.5;entryY=0;entryDx=0;entryDy=0;" parent="z_V2Mc0wrhUSTgX5yjXf-62" source="z_V2Mc0wrhUSTgX5yjXf-77" edge="1">
          <mxGeometry relative="1" as="geometry">
            <mxPoint x="441" y="470" as="targetPoint" />
          </mxGeometry>
        </mxCell>
        <mxCell id="z_V2Mc0wrhUSTgX5yjXf-76" style="edgeStyle=orthogonalEdgeStyle;rounded=0;orthogonalLoop=1;jettySize=auto;html=1;exitX=0;exitY=0.5;exitDx=0;exitDy=0;entryX=0.5;entryY=0;entryDx=0;entryDy=0;" parent="z_V2Mc0wrhUSTgX5yjXf-62" source="z_V2Mc0wrhUSTgX5yjXf-77" edge="1">
          <mxGeometry relative="1" as="geometry">
            <mxPoint x="121" y="470" as="targetPoint" />
          </mxGeometry>
        </mxCell>
        <mxCell id="z_V2Mc0wrhUSTgX5yjXf-77" value="Keys:&amp;nbsp;SPACE" style="rhombus;whiteSpace=wrap;html=1;" parent="z_V2Mc0wrhUSTgX5yjXf-62" vertex="1">
          <mxGeometry x="141" y="390" width="280" height="60" as="geometry" />
        </mxCell>
        <mxCell id="z_V2Mc0wrhUSTgX5yjXf-78" value="yes" style="text;html=1;align=center;verticalAlign=middle;whiteSpace=wrap;rounded=0;" parent="z_V2Mc0wrhUSTgX5yjXf-62" vertex="1">
          <mxGeometry x="151" y="430" width="60" height="30" as="geometry" />
        </mxCell>
        <mxCell id="z_V2Mc0wrhUSTgX5yjXf-79" value="no" style="text;html=1;align=center;verticalAlign=middle;whiteSpace=wrap;rounded=0;" parent="z_V2Mc0wrhUSTgX5yjXf-62" vertex="1">
          <mxGeometry x="351" y="430" width="60" height="30" as="geometry" />
        </mxCell>
        <mxCell id="z_V2Mc0wrhUSTgX5yjXf-124" style="edgeStyle=orthogonalEdgeStyle;rounded=0;orthogonalLoop=1;jettySize=auto;html=1;exitX=0.5;exitY=1;exitDx=0;exitDy=0;" parent="z_V2Mc0wrhUSTgX5yjXf-62" source="z_V2Mc0wrhUSTgX5yjXf-90" edge="1">
          <mxGeometry relative="1" as="geometry">
            <mxPoint x="280" y="589.9999999999999" as="targetPoint" />
          </mxGeometry>
        </mxCell>
        <mxCell id="z_V2Mc0wrhUSTgX5yjXf-90" value="jump()" style="rounded=0;whiteSpace=wrap;html=1;" parent="z_V2Mc0wrhUSTgX5yjXf-62" vertex="1">
          <mxGeometry x="41" y="470" width="160" height="40" as="geometry" />
        </mxCell>
        <mxCell id="z_V2Mc0wrhUSTgX5yjXf-123" style="edgeStyle=orthogonalEdgeStyle;rounded=0;orthogonalLoop=1;jettySize=auto;html=1;exitX=0.5;exitY=1;exitDx=0;exitDy=0;entryX=0.5;entryY=0;entryDx=0;entryDy=0;" parent="z_V2Mc0wrhUSTgX5yjXf-62" source="z_V2Mc0wrhUSTgX5yjXf-91" target="z_V2Mc0wrhUSTgX5yjXf-109" edge="1">
          <mxGeometry relative="1" as="geometry" />
        </mxCell>
        <mxCell id="z_V2Mc0wrhUSTgX5yjXf-91" value="stopJump()" style="rounded=0;whiteSpace=wrap;html=1;" parent="z_V2Mc0wrhUSTgX5yjXf-62" vertex="1">
          <mxGeometry x="361" y="470" width="160" height="40" as="geometry" />
        </mxCell>
        <mxCell id="z_V2Mc0wrhUSTgX5yjXf-118" style="edgeStyle=orthogonalEdgeStyle;rounded=0;orthogonalLoop=1;jettySize=auto;html=1;exitX=0.5;exitY=1;exitDx=0;exitDy=0;entryX=0.5;entryY=0;entryDx=0;entryDy=0;" parent="z_V2Mc0wrhUSTgX5yjXf-62" source="z_V2Mc0wrhUSTgX5yjXf-109" target="z_V2Mc0wrhUSTgX5yjXf-110" edge="1">
          <mxGeometry relative="1" as="geometry" />
        </mxCell>
        <mxCell id="z_V2Mc0wrhUSTgX5yjXf-109" value="applyGravity()" style="rounded=0;whiteSpace=wrap;html=1;" parent="z_V2Mc0wrhUSTgX5yjXf-62" vertex="1">
          <mxGeometry x="200" y="590" width="160" height="40" as="geometry" />
        </mxCell>
        <mxCell id="z_V2Mc0wrhUSTgX5yjXf-120" style="edgeStyle=orthogonalEdgeStyle;rounded=0;orthogonalLoop=1;jettySize=auto;html=1;exitX=0.5;exitY=1;exitDx=0;exitDy=0;entryX=0.5;entryY=0;entryDx=0;entryDy=0;" parent="z_V2Mc0wrhUSTgX5yjXf-62" source="z_V2Mc0wrhUSTgX5yjXf-110" target="z_V2Mc0wrhUSTgX5yjXf-111" edge="1">
          <mxGeometry relative="1" as="geometry" />
        </mxCell>
        <mxCell id="z_V2Mc0wrhUSTgX5yjXf-110" value="jumpLimit()" style="rounded=0;whiteSpace=wrap;html=1;" parent="z_V2Mc0wrhUSTgX5yjXf-62" vertex="1">
          <mxGeometry x="200" y="670" width="160" height="40" as="geometry" />
        </mxCell>
        <mxCell id="z_V2Mc0wrhUSTgX5yjXf-121" style="edgeStyle=orthogonalEdgeStyle;rounded=0;orthogonalLoop=1;jettySize=auto;html=1;exitX=0.5;exitY=1;exitDx=0;exitDy=0;entryX=0.5;entryY=0;entryDx=0;entryDy=0;" parent="z_V2Mc0wrhUSTgX5yjXf-62" source="z_V2Mc0wrhUSTgX5yjXf-111" target="z_V2Mc0wrhUSTgX5yjXf-112" edge="1">
          <mxGeometry relative="1" as="geometry" />
        </mxCell>
        <mxCell id="z_V2Mc0wrhUSTgX5yjXf-111" value="updatePosition()" style="rounded=0;whiteSpace=wrap;html=1;" parent="z_V2Mc0wrhUSTgX5yjXf-62" vertex="1">
          <mxGeometry x="200" y="750" width="160" height="40" as="geometry" />
        </mxCell>
        <mxCell id="z_V2Mc0wrhUSTgX5yjXf-112" value="checkObjectCollision()" style="rounded=0;whiteSpace=wrap;html=1;" parent="z_V2Mc0wrhUSTgX5yjXf-62" vertex="1">
          <mxGeometry x="200" y="830" width="160" height="40" as="geometry" />
        </mxCell>
        <mxCell id="z_V2Mc0wrhUSTgX5yjXf-128" style="edgeStyle=orthogonalEdgeStyle;rounded=0;orthogonalLoop=1;jettySize=auto;html=1;exitX=0.5;exitY=1;exitDx=0;exitDy=0;entryX=0.5;entryY=0;entryDx=0;entryDy=0;" parent="z_V2Mc0wrhUSTgX5yjXf-62" source="z_V2Mc0wrhUSTgX5yjXf-113" target="z_V2Mc0wrhUSTgX5yjXf-127" edge="1">
          <mxGeometry relative="1" as="geometry" />
        </mxCell>
        <mxCell id="z_V2Mc0wrhUSTgX5yjXf-113" value="updateTeilPosition()" style="rounded=0;whiteSpace=wrap;html=1;" parent="z_V2Mc0wrhUSTgX5yjXf-62" vertex="1">
          <mxGeometry x="200.5" y="910" width="160" height="40" as="geometry" />
        </mxCell>
        <mxCell id="z_V2Mc0wrhUSTgX5yjXf-122" style="edgeStyle=orthogonalEdgeStyle;rounded=0;orthogonalLoop=1;jettySize=auto;html=1;entryX=0.5;entryY=0;entryDx=0;entryDy=0;" parent="z_V2Mc0wrhUSTgX5yjXf-62" source="z_V2Mc0wrhUSTgX5yjXf-112" target="z_V2Mc0wrhUSTgX5yjXf-113" edge="1">
          <mxGeometry relative="1" as="geometry" />
        </mxCell>
        <mxCell id="z_V2Mc0wrhUSTgX5yjXf-127" value="END" style="ellipse;whiteSpace=wrap;html=1;" parent="z_V2Mc0wrhUSTgX5yjXf-62" vertex="1">
          <mxGeometry x="180" y="990" width="200" height="40" as="geometry" />
        </mxCell>
        <mxCell id="z_V2Mc0wrhUSTgX5yjXf-89" style="edgeStyle=orthogonalEdgeStyle;rounded=0;orthogonalLoop=1;jettySize=auto;html=1;entryX=1;entryY=0.5;entryDx=0;entryDy=0;" parent="z_V2Mc0wrhUSTgX5yjXf-4" source="z_V2Mc0wrhUSTgX5yjXf-63" target="z_V2Mc0wrhUSTgX5yjXf-41" edge="1">
          <mxGeometry relative="1" as="geometry" />
        </mxCell>
        <mxCell id="z_V2Mc0wrhUSTgX5yjXf-63" value="renderUI()" style="swimlane;whiteSpace=wrap;html=1;" parent="z_V2Mc0wrhUSTgX5yjXf-4" vertex="1">
          <mxGeometry x="770" y="730" width="240" height="340" as="geometry" />
        </mxCell>
        <mxCell id="z_V2Mc0wrhUSTgX5yjXf-86" style="edgeStyle=orthogonalEdgeStyle;rounded=0;orthogonalLoop=1;jettySize=auto;html=1;entryX=0.5;entryY=0;entryDx=0;entryDy=0;" parent="z_V2Mc0wrhUSTgX5yjXf-63" source="z_V2Mc0wrhUSTgX5yjXf-82" target="z_V2Mc0wrhUSTgX5yjXf-83" edge="1">
          <mxGeometry relative="1" as="geometry" />
        </mxCell>
        <mxCell id="z_V2Mc0wrhUSTgX5yjXf-82" value="START" style="ellipse;whiteSpace=wrap;html=1;" parent="z_V2Mc0wrhUSTgX5yjXf-63" vertex="1">
          <mxGeometry x="20" y="40" width="200" height="40" as="geometry" />
        </mxCell>
        <mxCell id="z_V2Mc0wrhUSTgX5yjXf-87" style="edgeStyle=orthogonalEdgeStyle;rounded=0;orthogonalLoop=1;jettySize=auto;html=1;entryX=0.5;entryY=0;entryDx=0;entryDy=0;" parent="z_V2Mc0wrhUSTgX5yjXf-63" source="z_V2Mc0wrhUSTgX5yjXf-83" target="z_V2Mc0wrhUSTgX5yjXf-84" edge="1">
          <mxGeometry relative="1" as="geometry" />
        </mxCell>
        <mxCell id="z_V2Mc0wrhUSTgX5yjXf-83" value="renderUILifes(gc, renderer)" style="rounded=0;whiteSpace=wrap;html=1;" parent="z_V2Mc0wrhUSTgX5yjXf-63" vertex="1">
          <mxGeometry x="40" y="120" width="160" height="40" as="geometry" />
        </mxCell>
        <mxCell id="z_V2Mc0wrhUSTgX5yjXf-88" style="edgeStyle=orthogonalEdgeStyle;rounded=0;orthogonalLoop=1;jettySize=auto;html=1;entryX=0.5;entryY=0;entryDx=0;entryDy=0;" parent="z_V2Mc0wrhUSTgX5yjXf-63" source="z_V2Mc0wrhUSTgX5yjXf-84" target="z_V2Mc0wrhUSTgX5yjXf-85" edge="1">
          <mxGeometry relative="1" as="geometry" />
        </mxCell>
        <mxCell id="z_V2Mc0wrhUSTgX5yjXf-84" value="renderUIKeys(gc, renderer)" style="rounded=0;whiteSpace=wrap;html=1;" parent="z_V2Mc0wrhUSTgX5yjXf-63" vertex="1">
          <mxGeometry x="40" y="200" width="160" height="40" as="geometry" />
        </mxCell>
        <mxCell id="z_V2Mc0wrhUSTgX5yjXf-85" value="END" style="ellipse;whiteSpace=wrap;html=1;" parent="z_V2Mc0wrhUSTgX5yjXf-63" vertex="1">
          <mxGeometry x="20" y="280" width="200" height="40" as="geometry" />
        </mxCell>
        <mxCell id="z_V2Mc0wrhUSTgX5yjXf-60" value="" style="endArrow=classic;html=1;rounded=0;exitX=0.5;exitY=1;exitDx=0;exitDy=0;" parent="1" source="z_V2Mc0wrhUSTgX5yjXf-42" edge="1">
          <mxGeometry relative="1" as="geometry">
            <mxPoint x="120" y="1120" as="sourcePoint" />
            <mxPoint x="380" y="200" as="targetPoint" />
            <Array as="points">
              <mxPoint x="700" y="1120" />
              <mxPoint x="120" y="1120" />
              <mxPoint x="120" y="200" />
            </Array>
          </mxGeometry>
        </mxCell>
        <mxCell id="z_V2Mc0wrhUSTgX5yjXf-61" value="&lt;font style=&quot;font-size: 20px;&quot;&gt;GameLoop&lt;/font&gt;" style="edgeLabel;resizable=0;html=1;;align=center;verticalAlign=middle;" parent="z_V2Mc0wrhUSTgX5yjXf-60" connectable="0" vertex="1">
          <mxGeometry relative="1" as="geometry" />
        </mxCell>
      </root>
    </mxGraphModel>
  </diagram>
  <diagram name="Generator" id="wTC-loF1JLNNFOPbxdDR">
    <mxGraphModel dx="1313" dy="786" grid="1" gridSize="10" guides="1" tooltips="1" connect="1" arrows="1" fold="1" page="1" pageScale="1" pageWidth="827" pageHeight="1169" math="0" shadow="0">
      <root>
        <mxCell id="BSaJGw7cII2nHIVfN1XJ-0" />
        <mxCell id="BSaJGw7cII2nHIVfN1XJ-1" parent="BSaJGw7cII2nHIVfN1XJ-0" />
        <mxCell id="BSaJGw7cII2nHIVfN1XJ-2" value="Generator.java" style="swimlane;whiteSpace=wrap;html=1;swimlaneLine=0;startSize=23;" vertex="1" parent="BSaJGw7cII2nHIVfN1XJ-1">
          <mxGeometry x="40" y="40" width="2980" height="1840" as="geometry" />
        </mxCell>
        <mxCell id="FdqJv62x-gAdrgDG13Yi-52" style="edgeStyle=orthogonalEdgeStyle;rounded=0;orthogonalLoop=1;jettySize=auto;html=1;entryX=0.5;entryY=0;entryDx=0;entryDy=0;" edge="1" parent="BSaJGw7cII2nHIVfN1XJ-2" source="BSaJGw7cII2nHIVfN1XJ-4">
          <mxGeometry relative="1" as="geometry">
            <mxPoint x="280.0000000000001" y="240" as="targetPoint" />
          </mxGeometry>
        </mxCell>
        <mxCell id="BSaJGw7cII2nHIVfN1XJ-4" value="START" style="ellipse;whiteSpace=wrap;html=1;" vertex="1" parent="BSaJGw7cII2nHIVfN1XJ-2">
          <mxGeometry x="160" y="120" width="240" height="80" as="geometry" />
        </mxCell>
        <mxCell id="BSaJGw7cII2nHIVfN1XJ-5" style="edgeStyle=orthogonalEdgeStyle;rounded=0;orthogonalLoop=1;jettySize=auto;html=1;exitX=0;exitY=0.5;exitDx=0;exitDy=0;entryX=0.5;entryY=0;entryDx=0;entryDy=0;" edge="1" parent="BSaJGw7cII2nHIVfN1XJ-2" source="BSaJGw7cII2nHIVfN1XJ-7">
          <mxGeometry relative="1" as="geometry">
            <mxPoint x="1640" y="310" as="targetPoint" />
          </mxGeometry>
        </mxCell>
        <mxCell id="BSaJGw7cII2nHIVfN1XJ-6" style="edgeStyle=orthogonalEdgeStyle;rounded=0;orthogonalLoop=1;jettySize=auto;html=1;exitX=1;exitY=0.5;exitDx=0;exitDy=0;entryX=0.5;entryY=0;entryDx=0;entryDy=0;" edge="1" parent="BSaJGw7cII2nHIVfN1XJ-2" source="BSaJGw7cII2nHIVfN1XJ-7">
          <mxGeometry relative="1" as="geometry">
            <mxPoint x="1960" y="310" as="targetPoint" />
          </mxGeometry>
        </mxCell>
        <mxCell id="BSaJGw7cII2nHIVfN1XJ-7" value="GameState.getGameOverState()" style="rhombus;whiteSpace=wrap;html=1;" vertex="1" parent="BSaJGw7cII2nHIVfN1XJ-2">
          <mxGeometry x="1660" y="220" width="280" height="60" as="geometry" />
        </mxCell>
        <mxCell id="BSaJGw7cII2nHIVfN1XJ-9" value="yes" style="text;html=1;align=center;verticalAlign=middle;whiteSpace=wrap;rounded=0;" vertex="1" parent="BSaJGw7cII2nHIVfN1XJ-2">
          <mxGeometry x="1670" y="260" width="60" height="30" as="geometry" />
        </mxCell>
        <mxCell id="BSaJGw7cII2nHIVfN1XJ-10" value="no" style="text;html=1;align=center;verticalAlign=middle;whiteSpace=wrap;rounded=0;" vertex="1" parent="BSaJGw7cII2nHIVfN1XJ-2">
          <mxGeometry x="1870" y="260" width="60" height="30" as="geometry" />
        </mxCell>
        <mxCell id="BSaJGw7cII2nHIVfN1XJ-32" value="&lt;b&gt;renderUI()&lt;/b&gt;" style="rounded=0;whiteSpace=wrap;html=1;" vertex="1" parent="BSaJGw7cII2nHIVfN1XJ-2">
          <mxGeometry x="1310" y="1500" width="120" height="40" as="geometry" />
        </mxCell>
        <mxCell id="BSaJGw7cII2nHIVfN1XJ-71" style="edgeStyle=orthogonalEdgeStyle;rounded=0;orthogonalLoop=1;jettySize=auto;html=1;entryX=1;entryY=0.5;entryDx=0;entryDy=0;" edge="1" parent="BSaJGw7cII2nHIVfN1XJ-2" source="BSaJGw7cII2nHIVfN1XJ-72" target="BSaJGw7cII2nHIVfN1XJ-32">
          <mxGeometry relative="1" as="geometry" />
        </mxCell>
        <mxCell id="BSaJGw7cII2nHIVfN1XJ-72" value="renderUI()" style="swimlane;whiteSpace=wrap;html=1;" vertex="1" parent="BSaJGw7cII2nHIVfN1XJ-2">
          <mxGeometry x="1600" y="1360" width="240" height="340" as="geometry" />
        </mxCell>
        <mxCell id="BSaJGw7cII2nHIVfN1XJ-73" style="edgeStyle=orthogonalEdgeStyle;rounded=0;orthogonalLoop=1;jettySize=auto;html=1;entryX=0.5;entryY=0;entryDx=0;entryDy=0;" edge="1" parent="BSaJGw7cII2nHIVfN1XJ-72" source="BSaJGw7cII2nHIVfN1XJ-74" target="BSaJGw7cII2nHIVfN1XJ-76">
          <mxGeometry relative="1" as="geometry" />
        </mxCell>
        <mxCell id="BSaJGw7cII2nHIVfN1XJ-74" value="START" style="ellipse;whiteSpace=wrap;html=1;" vertex="1" parent="BSaJGw7cII2nHIVfN1XJ-72">
          <mxGeometry x="20" y="40" width="200" height="40" as="geometry" />
        </mxCell>
        <mxCell id="BSaJGw7cII2nHIVfN1XJ-75" style="edgeStyle=orthogonalEdgeStyle;rounded=0;orthogonalLoop=1;jettySize=auto;html=1;entryX=0.5;entryY=0;entryDx=0;entryDy=0;" edge="1" parent="BSaJGw7cII2nHIVfN1XJ-72" source="BSaJGw7cII2nHIVfN1XJ-76" target="BSaJGw7cII2nHIVfN1XJ-78">
          <mxGeometry relative="1" as="geometry" />
        </mxCell>
        <mxCell id="BSaJGw7cII2nHIVfN1XJ-76" value="renderUILifes(gc, renderer)" style="rounded=0;whiteSpace=wrap;html=1;" vertex="1" parent="BSaJGw7cII2nHIVfN1XJ-72">
          <mxGeometry x="40" y="120" width="160" height="40" as="geometry" />
        </mxCell>
        <mxCell id="BSaJGw7cII2nHIVfN1XJ-77" style="edgeStyle=orthogonalEdgeStyle;rounded=0;orthogonalLoop=1;jettySize=auto;html=1;entryX=0.5;entryY=0;entryDx=0;entryDy=0;" edge="1" parent="BSaJGw7cII2nHIVfN1XJ-72" source="BSaJGw7cII2nHIVfN1XJ-78" target="BSaJGw7cII2nHIVfN1XJ-79">
          <mxGeometry relative="1" as="geometry" />
        </mxCell>
        <mxCell id="BSaJGw7cII2nHIVfN1XJ-78" value="renderUIKeys(gc, renderer)" style="rounded=0;whiteSpace=wrap;html=1;" vertex="1" parent="BSaJGw7cII2nHIVfN1XJ-72">
          <mxGeometry x="40" y="200" width="160" height="40" as="geometry" />
        </mxCell>
        <mxCell id="BSaJGw7cII2nHIVfN1XJ-79" value="END" style="ellipse;whiteSpace=wrap;html=1;" vertex="1" parent="BSaJGw7cII2nHIVfN1XJ-72">
          <mxGeometry x="20" y="280" width="200" height="40" as="geometry" />
        </mxCell>
        <mxCell id="FdqJv62x-gAdrgDG13Yi-0" value="GroundTileType.java" style="swimlane;whiteSpace=wrap;html=1;" vertex="1" parent="BSaJGw7cII2nHIVfN1XJ-2">
          <mxGeometry x="2640" y="40" width="320" height="280" as="geometry" />
        </mxCell>
        <mxCell id="FdqJv62x-gAdrgDG13Yi-37" value="&lt;div&gt;&lt;font face=&quot;Courier New&quot;&gt;public enum GroundTileType {&lt;/font&gt;&lt;/div&gt;&lt;div&gt;&lt;font face=&quot;Courier New&quot;&gt;&amp;nbsp; &amp;nbsp; NONE(&#39;.&#39;),&lt;/font&gt;&lt;/div&gt;&lt;div&gt;&lt;font face=&quot;Courier New&quot;&gt;&amp;nbsp; &amp;nbsp; GROUND(&#39;#&#39;),&lt;/font&gt;&lt;/div&gt;&lt;div&gt;&lt;font face=&quot;Courier New&quot;&gt;&amp;nbsp; &amp;nbsp; PLATFORM(&#39;~&#39;);&lt;/font&gt;&lt;/div&gt;&lt;div&gt;&lt;font face=&quot;Courier New&quot;&gt;&amp;nbsp; &amp;nbsp;&amp;nbsp;&lt;/font&gt;&lt;/div&gt;&lt;div&gt;&lt;font face=&quot;Courier New&quot;&gt;&amp;nbsp; &amp;nbsp; public final char symbol;&lt;/font&gt;&lt;/div&gt;&lt;div&gt;&lt;font face=&quot;Courier New&quot;&gt;&lt;br&gt;&lt;/font&gt;&lt;/div&gt;&lt;div&gt;&lt;font face=&quot;Courier New&quot;&gt;&amp;nbsp; &amp;nbsp; GroundTileType(char symbol) {&lt;/font&gt;&lt;/div&gt;&lt;div&gt;&lt;font face=&quot;Courier New&quot;&gt;&amp;nbsp; &amp;nbsp; &amp;nbsp; &amp;nbsp; this.symbol = symbol;&lt;/font&gt;&lt;/div&gt;&lt;div&gt;&lt;font face=&quot;Courier New&quot;&gt;&amp;nbsp; &amp;nbsp; }&lt;/font&gt;&lt;/div&gt;&lt;div&gt;&lt;font face=&quot;Courier New&quot;&gt;&amp;nbsp; &amp;nbsp;&amp;nbsp;&lt;/font&gt;&lt;/div&gt;&lt;div&gt;&lt;font face=&quot;Courier New&quot;&gt;}&lt;/font&gt;&lt;/div&gt;" style="text;html=1;align=left;verticalAlign=middle;whiteSpace=wrap;rounded=0;" vertex="1" parent="FdqJv62x-gAdrgDG13Yi-0">
          <mxGeometry x="40" y="40" width="240" height="210" as="geometry" />
        </mxCell>
        <mxCell id="FdqJv62x-gAdrgDG13Yi-36" value="ObjectTileType.java" style="swimlane;whiteSpace=wrap;html=1;" vertex="1" parent="BSaJGw7cII2nHIVfN1XJ-2">
          <mxGeometry x="2640" y="360" width="320" height="280" as="geometry" />
        </mxCell>
        <mxCell id="FdqJv62x-gAdrgDG13Yi-38" value="&lt;div&gt;&lt;font face=&quot;Courier New&quot;&gt;public enum ObjectTileType {&lt;/font&gt;&lt;/div&gt;&lt;div&gt;&lt;font face=&quot;Courier New&quot;&gt;&amp;nbsp; &amp;nbsp; NONE(&#39;.&#39;),&lt;/font&gt;&lt;/div&gt;&lt;div&gt;&lt;font face=&quot;Courier New&quot;&gt;&amp;nbsp; &amp;nbsp; KEY(&#39;?&#39;),&lt;/font&gt;&lt;/div&gt;&lt;div&gt;&lt;font face=&quot;Courier New&quot;&gt;&amp;nbsp; &amp;nbsp; SPIKE(&#39;^&#39;),&lt;/font&gt;&lt;/div&gt;&lt;div&gt;&lt;font face=&quot;Courier New&quot;&gt;&amp;nbsp; &amp;nbsp; DOOR(&#39;0&#39;),&lt;/font&gt;&lt;/div&gt;&lt;div&gt;&lt;font face=&quot;Courier New&quot;&gt;&amp;nbsp; &amp;nbsp; PLAYER(&#39;+&#39;);&lt;/font&gt;&lt;/div&gt;&lt;div&gt;&lt;font face=&quot;Courier New&quot;&gt;&amp;nbsp; &amp;nbsp;&amp;nbsp;&lt;/font&gt;&lt;/div&gt;&lt;div&gt;&lt;font face=&quot;Courier New&quot;&gt;&amp;nbsp; &amp;nbsp; public final char symbol;&lt;/font&gt;&lt;/div&gt;&lt;div&gt;&lt;font face=&quot;Courier New&quot;&gt;&amp;nbsp; &amp;nbsp;&amp;nbsp;&lt;/font&gt;&lt;/div&gt;&lt;div&gt;&lt;font face=&quot;Courier New&quot;&gt;&amp;nbsp; &amp;nbsp; ObjectTileType(char symbol) {&lt;/font&gt;&lt;/div&gt;&lt;div&gt;&lt;font face=&quot;Courier New&quot;&gt;&amp;nbsp; &amp;nbsp; &amp;nbsp; &amp;nbsp; this.symbol = symbol;&lt;/font&gt;&lt;/div&gt;&lt;div&gt;&lt;font face=&quot;Courier New&quot;&gt;&amp;nbsp; &amp;nbsp; }&lt;/font&gt;&lt;/div&gt;&lt;div&gt;&lt;font face=&quot;Courier New&quot;&gt;}&lt;/font&gt;&lt;/div&gt;" style="text;html=1;align=left;verticalAlign=middle;whiteSpace=wrap;rounded=0;" vertex="1" parent="FdqJv62x-gAdrgDG13Yi-36">
          <mxGeometry x="40" y="40" width="240" height="210" as="geometry" />
        </mxCell>
        <mxCell id="FdqJv62x-gAdrgDG13Yi-41" value="ObjectTileType.java" style="swimlane;whiteSpace=wrap;html=1;" vertex="1" parent="BSaJGw7cII2nHIVfN1XJ-2">
          <mxGeometry x="1800" y="720" width="1080" height="600" as="geometry" />
        </mxCell>
        <mxCell id="FdqJv62x-gAdrgDG13Yi-42" value="&lt;pre style=&quot;&quot;&gt;&lt;font face=&quot;Courier New&quot;&gt;&lt;i style=&quot;background-color: transparent; color: light-dark(rgb(0, 0, 0), rgb(255, 255, 255));&quot;&gt;&lt;font style=&quot;font-size: 16px;&quot;&gt;&amp;lt;?xml version=&quot;1.0&quot; encoding=&quot;UTF-8&quot;?&amp;gt;&lt;br&gt;&lt;/font&gt;&lt;/i&gt;&lt;i style=&quot;background-color: transparent; color: light-dark(rgb(0, 0, 0), rgb(255, 255, 255));&quot;&gt;&amp;lt;level width=&quot;100&quot; height=&quot;10&quot;&amp;gt;&lt;br&gt;&lt;/i&gt;&lt;i style=&quot;background-color: transparent; color: light-dark(rgb(0, 0, 0), rgb(255, 255, 255));&quot;&gt;&amp;nbsp; &amp;nbsp; &amp;lt;layer name=&quot;ground&quot;&amp;gt;&lt;br&gt;&lt;/i&gt;&lt;i style=&quot;background-color: transparent; color: light-dark(rgb(0, 0, 0), rgb(255, 255, 255));&quot;&gt;&amp;nbsp; &amp;nbsp; &amp;nbsp; &amp;nbsp; &amp;lt;row&amp;gt;..................................################..................................................&amp;lt;/row&amp;gt;&lt;br&gt;&lt;/i&gt;&lt;i style=&quot;background-color: transparent; color: light-dark(rgb(0, 0, 0), rgb(255, 255, 255));&quot;&gt;&amp;nbsp; &amp;nbsp; &amp;nbsp; &amp;nbsp; &amp;lt;row&amp;gt;.............~~~~~~~~~~~..........#..#########......................................................&amp;lt;/row&amp;gt;&lt;br&gt;&lt;/i&gt;&lt;i style=&quot;background-color: transparent; color: light-dark(rgb(0, 0, 0), rgb(255, 255, 255));&quot;&gt;&amp;nbsp; &amp;nbsp; &amp;nbsp; &amp;nbsp; &amp;lt;row&amp;gt;.......................................................~~~~~~~......................................&amp;lt;/row&amp;gt;&lt;br&gt;&lt;/i&gt;&lt;i style=&quot;background-color: transparent; color: light-dark(rgb(0, 0, 0), rgb(255, 255, 255));&quot;&gt;&amp;nbsp; &amp;nbsp; &amp;nbsp; &amp;nbsp; &amp;lt;row&amp;gt;.........................~~~~...........................####............................~~~~........&amp;lt;/row&amp;gt;&lt;br&gt;&lt;/i&gt;&lt;i style=&quot;background-color: transparent; color: light-dark(rgb(0, 0, 0), rgb(255, 255, 255));&quot;&gt;&amp;nbsp; &amp;nbsp; &amp;nbsp; &amp;nbsp; &amp;lt;row&amp;gt;..~~~~~~...........................~~~~~~~~....................~~~~~~~.............~~~~~####~~~.....&amp;lt;/row&amp;gt;&lt;br&gt;&lt;/i&gt;&lt;i style=&quot;background-color: transparent; color: light-dark(rgb(0, 0, 0), rgb(255, 255, 255));&quot;&gt;&amp;nbsp; &amp;nbsp; &amp;nbsp; &amp;nbsp; &amp;lt;row&amp;gt;..####..............~~~~~..........########.......~~.......................................####~~~~.&amp;lt;/row&amp;gt;&lt;br&gt;&lt;/i&gt;&lt;i style=&quot;background-color: transparent; color: light-dark(rgb(0, 0, 0), rgb(255, 255, 255));&quot;&gt;&amp;nbsp; &amp;nbsp; &amp;nbsp; &amp;nbsp; &amp;lt;row&amp;gt;...........~~~~~~~.................#####..........##......~~~............~~~~~~~~~~.................&amp;lt;/row&amp;gt;&lt;br&gt;&lt;/i&gt;&lt;i style=&quot;background-color: transparent; color: light-dark(rgb(0, 0, 0), rgb(255, 255, 255));&quot;&gt;&amp;nbsp; &amp;nbsp; &amp;nbsp; &amp;nbsp; &amp;lt;row&amp;gt;............................................~.......................................................&amp;lt;/row&amp;gt;&lt;br&gt;&lt;/i&gt;&lt;i style=&quot;background-color: transparent; color: light-dark(rgb(0, 0, 0), rgb(255, 255, 255));&quot;&gt;&amp;nbsp; &amp;nbsp; &amp;nbsp; &amp;nbsp; &amp;lt;row&amp;gt;~~~~~~~~~~~~~~~~~~~~~~~~~~~~~~~~~~~~~~~~~~~~#~~~~~~~~~~~~~~~~~~~~~~~~~~~~~~~~~~~~~~~~~~~~~~~~~~~~~~~&amp;lt;/row&amp;gt;&lt;br&gt;&lt;/i&gt;&lt;i style=&quot;background-color: transparent; color: light-dark(rgb(0, 0, 0), rgb(255, 255, 255));&quot;&gt;&amp;nbsp; &amp;nbsp; &amp;nbsp; &amp;nbsp; &amp;lt;row&amp;gt;####################################################################################################&amp;lt;/row&amp;gt;&lt;br&gt;&lt;/i&gt;&lt;i style=&quot;background-color: transparent; color: light-dark(rgb(0, 0, 0), rgb(255, 255, 255));&quot;&gt;&amp;nbsp; &amp;nbsp; &amp;lt;/layer&amp;gt;&lt;br&gt;&lt;/i&gt;&lt;i style=&quot;background-color: transparent; color: light-dark(rgb(0, 0, 0), rgb(255, 255, 255));&quot;&gt;&amp;nbsp; &amp;nbsp; &amp;lt;layer name=&quot;object&quot;&amp;gt;&lt;br&gt;&lt;/i&gt;&lt;i style=&quot;background-color: transparent; color: light-dark(rgb(0, 0, 0), rgb(255, 255, 255));&quot;&gt;&amp;nbsp; &amp;nbsp; &amp;nbsp; &amp;nbsp; &amp;lt;row&amp;gt;................?...................................................................................&amp;lt;/row&amp;gt;&lt;br&gt;&lt;/i&gt;&lt;i style=&quot;background-color: transparent; color: light-dark(rgb(0, 0, 0), rgb(255, 255, 255));&quot;&gt;&amp;nbsp; &amp;nbsp; &amp;nbsp; &amp;nbsp; &amp;lt;row&amp;gt;.......................................................?..^.........................................&amp;lt;/row&amp;gt;&lt;br&gt;&lt;/i&gt;&lt;i style=&quot;background-color: transparent; color: light-dark(rgb(0, 0, 0), rgb(255, 255, 255));&quot;&gt;&amp;nbsp; &amp;nbsp; &amp;nbsp; &amp;nbsp; &amp;lt;row&amp;gt;..........................................................................................^.........&amp;lt;/row&amp;gt;&lt;br&gt;&lt;/i&gt;&lt;i style=&quot;background-color: transparent; color: light-dark(rgb(0, 0, 0), rgb(255, 255, 255));&quot;&gt;&amp;nbsp; &amp;nbsp; &amp;nbsp; &amp;nbsp; &amp;lt;row&amp;gt;..?...^...............................^............................?.................?.......?......&amp;lt;/row&amp;gt;&lt;br&gt;&lt;/i&gt;&lt;i style=&quot;background-color: transparent; color: light-dark(rgb(0, 0, 0), rgb(255, 255, 255));&quot;&gt;&amp;nbsp; &amp;nbsp; &amp;nbsp; &amp;nbsp; &amp;lt;row&amp;gt;..................................................?..............................................?..&amp;lt;/row&amp;gt;&lt;br&gt;&lt;/i&gt;&lt;i style=&quot;background-color: transparent; color: light-dark(rgb(0, 0, 0), rgb(255, 255, 255));&quot;&gt;&amp;nbsp; &amp;nbsp; &amp;nbsp; &amp;nbsp; &amp;lt;row&amp;gt;............................................................................^.......................&amp;lt;/row&amp;gt;&lt;br&gt;&lt;/i&gt;&lt;i style=&quot;background-color: transparent; color: light-dark(rgb(0, 0, 0), rgb(255, 255, 255));&quot;&gt;&amp;nbsp; &amp;nbsp; &amp;nbsp; &amp;nbsp; &amp;lt;row&amp;gt;....................................................................................................&amp;lt;/row&amp;gt;&lt;br&gt;&lt;/i&gt;&lt;i style=&quot;background-color: transparent; color: light-dark(rgb(0, 0, 0), rgb(255, 255, 255));&quot;&gt;&amp;nbsp; &amp;nbsp; &amp;nbsp; &amp;nbsp; &amp;lt;row&amp;gt;.+........^....................^........?.............^.........^.......................?.........0.&amp;lt;/row&amp;gt;&lt;br&gt;&lt;/i&gt;&lt;i style=&quot;background-color: transparent; color: light-dark(rgb(0, 0, 0), rgb(255, 255, 255));&quot;&gt;&amp;nbsp; &amp;nbsp; &amp;nbsp; &amp;nbsp; &amp;lt;row&amp;gt;....................................................................................................&amp;lt;/row&amp;gt;&lt;br&gt;&lt;/i&gt;&lt;i style=&quot;background-color: transparent; color: light-dark(rgb(0, 0, 0), rgb(255, 255, 255));&quot;&gt;&amp;nbsp; &amp;nbsp; &amp;nbsp; &amp;nbsp; &amp;lt;row&amp;gt;....................................................................................................&amp;lt;/row&amp;gt;&lt;br&gt;&lt;/i&gt;&lt;i style=&quot;background-color: transparent; color: light-dark(rgb(0, 0, 0), rgb(255, 255, 255));&quot;&gt;&amp;nbsp; &amp;nbsp; &amp;lt;/layer&amp;gt;&lt;br&gt;&lt;/i&gt;&lt;i style=&quot;background-color: transparent; color: light-dark(rgb(0, 0, 0), rgb(255, 255, 255));&quot;&gt;&amp;lt;/level&amp;gt;&lt;/i&gt;&lt;/font&gt;&lt;/pre&gt;" style="text;html=1;align=left;verticalAlign=middle;whiteSpace=wrap;rounded=0;glass=0;perimeterSpacing=1;strokeWidth=2;fillColor=none;" vertex="1" parent="FdqJv62x-gAdrgDG13Yi-41">
          <mxGeometry x="40" y="40" width="1010" height="530" as="geometry" />
        </mxCell>
        <mxCell id="FdqJv62x-gAdrgDG13Yi-43" value="END" style="ellipse;whiteSpace=wrap;html=1;" vertex="1" parent="BSaJGw7cII2nHIVfN1XJ-2">
          <mxGeometry x="160" y="760" width="240" height="80" as="geometry" />
        </mxCell>
        <mxCell id="FdqJv62x-gAdrgDG13Yi-44" value="&lt;font style=&quot;font-size: 20px;&quot;&gt;Ziel: XML-Datei für Karte erhalten&lt;/font&gt;" style="text;html=1;align=center;verticalAlign=middle;whiteSpace=wrap;rounded=0;" vertex="1" parent="BSaJGw7cII2nHIVfN1XJ-2">
          <mxGeometry x="40" y="40" width="340" height="30" as="geometry" />
        </mxCell>
        <mxCell id="FdqJv62x-gAdrgDG13Yi-51" style="edgeStyle=orthogonalEdgeStyle;rounded=0;orthogonalLoop=1;jettySize=auto;html=1;" edge="1" parent="BSaJGw7cII2nHIVfN1XJ-2" target="FdqJv62x-gAdrgDG13Yi-47">
          <mxGeometry relative="1" as="geometry">
            <mxPoint x="280.0000000000001" y="360" as="sourcePoint" />
          </mxGeometry>
        </mxCell>
        <mxCell id="FdqJv62x-gAdrgDG13Yi-50" style="edgeStyle=orthogonalEdgeStyle;rounded=0;orthogonalLoop=1;jettySize=auto;html=1;entryX=0.5;entryY=0;entryDx=0;entryDy=0;" edge="1" parent="BSaJGw7cII2nHIVfN1XJ-2" source="FdqJv62x-gAdrgDG13Yi-47" target="FdqJv62x-gAdrgDG13Yi-48">
          <mxGeometry relative="1" as="geometry" />
        </mxCell>
        <mxCell id="FdqJv62x-gAdrgDG13Yi-47" value="generateLevel();" style="rounded=0;whiteSpace=wrap;html=1;" vertex="1" parent="BSaJGw7cII2nHIVfN1XJ-2">
          <mxGeometry x="160" y="440" width="240" height="80" as="geometry" />
        </mxCell>
        <mxCell id="FdqJv62x-gAdrgDG13Yi-49" style="edgeStyle=orthogonalEdgeStyle;rounded=0;orthogonalLoop=1;jettySize=auto;html=1;entryX=0.5;entryY=0;entryDx=0;entryDy=0;" edge="1" parent="BSaJGw7cII2nHIVfN1XJ-2" source="FdqJv62x-gAdrgDG13Yi-48" target="FdqJv62x-gAdrgDG13Yi-43">
          <mxGeometry relative="1" as="geometry" />
        </mxCell>
        <mxCell id="FdqJv62x-gAdrgDG13Yi-48" value="saveLevelToFile(&quot;level_output.xml&quot;);" style="rounded=0;whiteSpace=wrap;html=1;" vertex="1" parent="BSaJGw7cII2nHIVfN1XJ-2">
          <mxGeometry x="160" y="600" width="240" height="80" as="geometry" />
        </mxCell>
        <mxCell id="Ef5NkvjZGaiHN4vDYJDN-0" value="&lt;div style=&quot;&quot;&gt;&amp;nbsp; &amp;nbsp; &amp;nbsp;this.width = width;&lt;/div&gt;&lt;div style=&quot;&quot;&gt;&amp;nbsp; &amp;nbsp; &amp;nbsp;this.height = height;&lt;/div&gt;&lt;div style=&quot;&quot;&gt;&amp;nbsp; &amp;nbsp; &amp;nbsp;this.groundLayer = new GroundTileType[height][width];&lt;/div&gt;&lt;div style=&quot;&quot;&gt;&amp;nbsp; &amp;nbsp; &amp;nbsp;this.objectLayer = new ObjectTileType[height][width];&lt;/div&gt;&lt;div style=&quot;&quot;&gt;&amp;nbsp; &amp;nbsp; &amp;nbsp;long seed = System.currentTimeMillis();&lt;/div&gt;&lt;div style=&quot;&quot;&gt;&amp;nbsp; &amp;nbsp; &amp;nbsp;this.random = new Random(seed);&lt;/div&gt;&lt;div style=&quot;&quot;&gt;&amp;nbsp; &amp;nbsp; &amp;nbsp;this.noise = new OpenSimplex2F(seed);&lt;/div&gt;" style="shape=parallelogram;perimeter=parallelogramPerimeter;whiteSpace=wrap;html=1;fixedSize=1;align=left;" vertex="1" parent="BSaJGw7cII2nHIVfN1XJ-2">
          <mxGeometry x="120" y="240" width="320" height="120" as="geometry" />
        </mxCell>
        <mxCell id="Ef5NkvjZGaiHN4vDYJDN-2" value="&lt;span style=&quot;font-weight: 400;&quot;&gt;generateLevel();&lt;/span&gt;" style="swimlane;whiteSpace=wrap;html=1;" vertex="1" parent="BSaJGw7cII2nHIVfN1XJ-2">
          <mxGeometry x="480" y="50" width="960" height="1390" as="geometry" />
        </mxCell>
        <mxCell id="Ef5NkvjZGaiHN4vDYJDN-21" style="edgeStyle=orthogonalEdgeStyle;rounded=0;orthogonalLoop=1;jettySize=auto;html=1;entryX=0.5;entryY=0;entryDx=0;entryDy=0;" edge="1" parent="Ef5NkvjZGaiHN4vDYJDN-2" source="Ef5NkvjZGaiHN4vDYJDN-12" target="Ef5NkvjZGaiHN4vDYJDN-13">
          <mxGeometry relative="1" as="geometry" />
        </mxCell>
        <mxCell id="Ef5NkvjZGaiHN4vDYJDN-12" value="&lt;span style=&quot;text-wrap: nowrap;&quot;&gt;for (int y = 0; y &amp;lt; height; y++)&lt;/span&gt;" style="rhombus;whiteSpace=wrap;html=1;" vertex="1" parent="Ef5NkvjZGaiHN4vDYJDN-2">
          <mxGeometry x="120" y="150" width="240" height="80" as="geometry" />
        </mxCell>
        <mxCell id="Ef5NkvjZGaiHN4vDYJDN-22" style="edgeStyle=orthogonalEdgeStyle;rounded=0;orthogonalLoop=1;jettySize=auto;html=1;" edge="1" parent="Ef5NkvjZGaiHN4vDYJDN-2" source="Ef5NkvjZGaiHN4vDYJDN-13" target="Ef5NkvjZGaiHN4vDYJDN-15">
          <mxGeometry relative="1" as="geometry" />
        </mxCell>
        <mxCell id="bcCmZTsxzmBLUwsUvlYe-0" style="edgeStyle=orthogonalEdgeStyle;rounded=0;orthogonalLoop=1;jettySize=auto;html=1;exitX=0;exitY=0.5;exitDx=0;exitDy=0;" edge="1" parent="Ef5NkvjZGaiHN4vDYJDN-2" source="Ef5NkvjZGaiHN4vDYJDN-13" target="Ef5NkvjZGaiHN4vDYJDN-12">
          <mxGeometry relative="1" as="geometry">
            <mxPoint x="80.00000000000023" y="310.21212121212125" as="targetPoint" />
            <Array as="points">
              <mxPoint x="80" y="310" />
              <mxPoint x="80" y="510" />
              <mxPoint x="440" y="510" />
              <mxPoint x="440" y="190" />
            </Array>
          </mxGeometry>
        </mxCell>
        <mxCell id="Ef5NkvjZGaiHN4vDYJDN-13" value="&lt;span style=&quot;text-wrap: nowrap;&quot;&gt;for (int x = 0; x &amp;lt; width; x++)&lt;/span&gt;" style="rhombus;whiteSpace=wrap;html=1;" vertex="1" parent="Ef5NkvjZGaiHN4vDYJDN-2">
          <mxGeometry x="120" y="270" width="240" height="80" as="geometry" />
        </mxCell>
        <mxCell id="Ef5NkvjZGaiHN4vDYJDN-15" value="&lt;div&gt;&lt;div style=&quot;text-align: center;&quot;&gt;SET&lt;/div&gt;groundLayer[y][x] = GroundTileType.NONE;&lt;/div&gt;&lt;div&gt;objectLayer[y][x] = ObjectTileType.NONE;&lt;/div&gt;" style="rounded=0;whiteSpace=wrap;html=1;align=left;" vertex="1" parent="Ef5NkvjZGaiHN4vDYJDN-2">
          <mxGeometry x="120" y="390" width="240" height="80" as="geometry" />
        </mxCell>
        <mxCell id="Ef5NkvjZGaiHN4vDYJDN-23" style="edgeStyle=orthogonalEdgeStyle;rounded=0;orthogonalLoop=1;jettySize=auto;html=1;exitX=1;exitY=0.5;exitDx=0;exitDy=0;entryX=1;entryY=0.5;entryDx=0;entryDy=0;" edge="1" parent="Ef5NkvjZGaiHN4vDYJDN-2" source="Ef5NkvjZGaiHN4vDYJDN-15" target="Ef5NkvjZGaiHN4vDYJDN-13">
          <mxGeometry relative="1" as="geometry">
            <mxPoint x="240" y="250" as="targetPoint" />
            <Array as="points">
              <mxPoint x="400" y="430" />
              <mxPoint x="400" y="310" />
            </Array>
          </mxGeometry>
        </mxCell>
        <mxCell id="bcCmZTsxzmBLUwsUvlYe-3" style="edgeStyle=orthogonalEdgeStyle;rounded=0;orthogonalLoop=1;jettySize=auto;html=1;entryX=0.5;entryY=0;entryDx=0;entryDy=0;" edge="1" parent="Ef5NkvjZGaiHN4vDYJDN-2" source="bcCmZTsxzmBLUwsUvlYe-1" target="Ef5NkvjZGaiHN4vDYJDN-12">
          <mxGeometry relative="1" as="geometry" />
        </mxCell>
        <mxCell id="bcCmZTsxzmBLUwsUvlYe-1" value="START" style="ellipse;whiteSpace=wrap;html=1;" vertex="1" parent="Ef5NkvjZGaiHN4vDYJDN-2">
          <mxGeometry x="120" y="30" width="240" height="80" as="geometry" />
        </mxCell>
        <mxCell id="bcCmZTsxzmBLUwsUvlYe-2" value="END" style="ellipse;whiteSpace=wrap;html=1;" vertex="1" parent="Ef5NkvjZGaiHN4vDYJDN-2">
          <mxGeometry x="80" y="1270" width="240" height="80" as="geometry" />
        </mxCell>
      </root>
    </mxGraphModel>
  </diagram>
</mxfile>
